<?xml version="1.0"?>
<svg version="1.1" xmlns="http://www.w3.org/2000/svg" width="400" height="50" style=""><path fill="#e94949" d="M15.93994140625,42.10693359375q0-0.1025390625,0.068359375-0.726318359375t0.179443359375-1.52099609375t0.247802734375-1.93115234375t0.2392578125-1.956787109375t0.179443359375-1.62353515625t0.076904296875-0.93994140625q-0.13671875-0.068359375-0.333251953125-0.196533203125t-0.196533203125-0.299072265625q0-0.2392578125,0.230712890625-0.384521484375t0.401611328125-0.213623046875q0.068359375-0.87158203125,0.1708984375-2.4267578125t0.316162109375-3.358154296875t0.59814453125-3.6572265625t1.016845703125-3.36669921875t1.52099609375-2.469482421875t2.1875-0.95703125t2.1533203125,0.8203125t1.392822265625,2.13623046875t0.8203125,2.92236328125t0.42724609375,3.19580078125t0.179443359375,2.9736328125t0.068359375,2.2216796875q0.0341796875,0.52978515625,0.25634765625,0.709228515625t0.487060546875,0.247802734375t0.478515625,0.15380859375t0.213623046875,0.42724609375q0,0.39306640625-0.478515625,0.546875t-0.751953125,0.18798828125q0.1708984375,2.13623046875,0.469970703125,4.2041015625t0.794677734375,4.169921875q0.068359375,0.39306640625,0.18798828125,0.794677734375t0.11962890625,0.777587890625q0,0.2734375-0.18798828125,0.452880859375t-0.487060546875,0.281982421875t-0.59814453125,0.13671875t-0.504150390625,0.0341796875q-0.76904296875,0-1.298828125-0.29052734375t-0.70068359375-1.11083984375q-0.46142578125-2.20458984375-0.90576171875-4.63134765625q-0.3759765625-2.10205078125-0.3759765625-4.08447265625q0-0.3076171875,0.01708984375-0.615234375q-1.435546875,0-2.88818359375,0.068359375t-2.78564453125,0.5126953125q-0.0341796875,0.46142578125-0.1708984375,1.7431640625t-0.3076171875,2.75146484375t-0.350341796875,2.811279296875t-0.213623046875,1.905517578125q-0.0341796875,0.2392578125-0.350341796875,0.452880859375t-0.68359375,0.230712890625t-0.6494140625-0.230712890625t-0.281982421875-0.880126953125z M19.1357421875,31.75048828125q1.3330078125-0.3076171875,2.674560546875-0.35888671875t2.708740234375-0.11962890625q-0.068359375-0.42724609375-0.0341796875-0.880126953125t0.0341796875-0.914306640625q0-1.00830078125-0.05126953125-2.34130859375t-0.15380859375-2.7001953125t-0.264892578125-2.691650390625t-0.367431640625-2.3583984375t-0.435791015625-1.649169921875t-0.504150390625-0.615234375q-0.52978515625,0.0341796875-0.999755859375,0.914306640625t-0.8544921875,2.23876953125t-0.70068359375,3.0419921875t-0.52978515625,3.289794921875t-0.350341796875,2.99072265625t-0.1708984375,2.1533203125z M33.160864257812,32.314453125q0-0.49560546875,0.281982421875-0.6494140625t0.709228515625-0.15380859375q0.70068359375,0,1.068115234375,0.264892578125t0.367431640625,0.931396484375q0,0.80322265625,0.11962890625,2.008056640625t0.350341796875,2.34130859375t0.546875,1.956787109375t0.657958984375,0.8203125q0.63232421875,0,1.119384765625-0.97412109375t0.8544921875-2.392578125t0.63232421875-3.050537109375t0.367431640625-2.913818359375q0.068359375-0.70068359375,0.333251953125-1.016845703125t0.965576171875-0.316162109375q0.80322265625,0,1.170654296875,0.66650390625t0.469970703125,1.640625q0.08544921875,0.83740234375,0.08544921875,1.7431640625l0,0.29052734375l0,0.68359375q0,0.6494140625,0.01708984375,1.162109375l0.49560546875,10.47607421875l0.068359375,1.7431640625q0.0341796875,0.2392578125,0.05126953125,0.452880859375t0.01708984375,0.452880859375q0,0.97412109375-0.418701171875,1.256103515625t-1.358642578125,0.281982421875q-0.205078125,0-0.521240234375-0.0341796875t-0.615234375-0.13671875t-0.5126953125-0.281982421875t-0.213623046875-0.452880859375l0.068359375-0.1708984375q0.08544921875-1.025390625,0.08544921875-2.1533203125l0-0.35888671875q-0.01708984375-1.3330078125-0.08544921875-2.7001953125t-0.15380859375-2.734375t-0.08544921875-2.6318359375q-0.2392578125,0.52978515625-0.555419921875,1.09375t-0.73486328125,1.016845703125t-0.948486328125,0.751953125t-1.1962890625,0.299072265625q-0.97412109375,0-1.6064453125-0.5126953125t-0.982666015625-1.3330078125t-0.504150390625-1.837158203125t-0.205078125-2.03369140625t-0.068359375-1.939697265625t-0.13671875-1.55517578125z M47.408154296875,31.71630859375q0-0.70068359375,0.41015625-1.204833984375t0.999755859375-0.8203125t1.290283203125-0.469970703125t1.298828125-0.15380859375q0.46142578125,0,1.23046875,0.13671875t1.50390625,0.41015625t1.273193359375,0.7177734375t0.538330078125,1.04248046875q0,0.2734375-0.205078125,0.487060546875t-0.42724609375,0.213623046875q-0.46142578125,0-0.83740234375-0.299072265625t-0.777587890625-0.63232421875t-0.880126953125-0.63232421875t-1.07666015625-0.299072265625t-1.085205078125,0.384521484375t-0.487060546875,1.016845703125q0,1.04248046875,0.73486328125,2.042236328125t1.614990234375,2.10205078125t1.614990234375,2.315673828125t0.73486328125,2.68310546875q0,0.63232421875-0.264892578125,1.068115234375t-0.70068359375,0.709228515625t-0.982666015625,0.418701171875t-1.0595703125,0.145263671875q-0.56396484375,0-1.31591796875-0.264892578125t-1.41845703125-0.70068359375t-1.119384765625-1.016845703125t-0.452880859375-1.21337890625q0-0.3076171875,0.435791015625-0.39306640625t0.640869140625-0.08544921875q0.1025390625,0,0.316162109375,0.068359375t0.418701171875,0.15380859375t0.367431640625,0.18798828125t0.128173828125,0.22216796875q0.1708984375,0.205078125,0.521240234375,0.606689453125t0.70068359375,0.6494140625t0.615234375,0.179443359375t0.264892578125-0.76904296875q0-1.3330078125-0.7177734375-2.452392578125t-1.563720703125-2.1875t-1.563720703125-2.119140625t-0.7177734375-2.247314453125z M58.750170898437,34.62158203125q0-0.341796875,0.076904296875-0.90576171875t0.179443359375-1.119384765625t0.2392578125-1.033935546875t0.32470703125-0.615234375q0.13671875-0.13671875,0.469970703125-0.2734375t0.70068359375-0.196533203125t0.68359375,0.05126953125t0.384521484375,0.452880859375q-0.2392578125,0.3076171875-0.435791015625,1.051025390625t-0.299072265625,1.649169921875q-0.08544921875,0.76904296875-0.08544921875,1.58935546875l0,0.29052734375q0.01708984375,0.95703125,0.1708984375,1.76025390625t0.469970703125,1.324462890625t0.880126953125,0.521240234375q1.1962890625,0,2.1875-1.102294921875t1.76025390625-2.691650390625t1.35009765625-3.375244140625t0.9912109375-3.118896484375q0.1025390625-0.39306640625,0.487060546875-0.52978515625t0.828857421875-0.093994140625t0.794677734375,0.213623046875t0.418701171875,0.41015625q-0.341796875,2.87109375-0.538330078125,5.7421875t-0.196533203125,5.7763671875q0,0.56396484375,0.05126953125,1.033935546875t-0.05126953125,0.80322265625t-0.452880859375,0.52978515625t-1.119384765625,0.196533203125q-0.1708984375,0-0.435791015625-0.0341796875t-0.546875-0.111083984375t-0.478515625-0.230712890625t-0.196533203125-0.35888671875q0-1.2646484375,0.093994140625-2.59765625t0.264892578125-2.58056640625q-0.46142578125,0.66650390625-1.016845703125,1.324462890625t-1.221923828125,1.187744140625t-1.435546875,0.845947265625t-1.65771484375,0.316162109375q-1.2646484375,0-1.990966796875-0.59814453125t-1.09375-1.495361328125t-0.46142578125-1.956787109375t-0.093994140625-2.05078125z M74.8431640625,36.2109375l0-0.49560546875q0-0.615234375,0.0341796875-1.162109375q0.0341796875-0.76904296875,0.0341796875-1.2646484375q0-0.2734375,0.0341796875-0.623779296875t0.1708984375-0.555419921875q0.1708984375-0.1708984375,0.401611328125-0.350341796875t0.504150390625-0.179443359375q0.87158203125,0,1.3671875,0.196533203125t0.52978515625,0.811767578125l0.068359375,0.52978515625q0.3076171875-0.73486328125,0.8203125-1.820068359375t1.187744140625-2.06787109375t1.52099609375-1.6748046875t1.785888671875-0.692138671875q0.87158203125,0,1.435546875,0.8203125t0.897216796875,2.093505859375t0.469970703125,2.8369140625t0.18798828125,3.067626953125t0.068359375,2.742919921875t0.11962890625,1.871337890625q0.068359375,0.52978515625,0.230712890625,1.119384765625t0.162353515625,1.085205078125q0,0.13671875-0.196533203125,0.264892578125t-0.418701171875,0.213623046875t-0.452880859375,0.13671875t-0.333251953125,0.05126953125q-0.66650390625,0-0.948486328125-0.999755859375t-0.350341796875-2.503662109375t-0.068359375-3.255615234375t-0.11962890625-3.255615234375t-0.487060546875-2.503662109375t-1.170654296875-1.033935546875q-0.73486328125,0-1.52099609375,0.948486328125t-1.35009765625,2.520751953125q-0.546875,1.572265625-0.751953125,3.57177734375q-0.068359375,0.63232421875-0.068359375,1.2646484375q0,1.38427734375,0.29052734375,2.7685546875q0.0341796875,0.2392578125-0.196533203125,0.35888671875t-0.572509765625,0.18798828125t-0.692138671875,0.08544921875t-0.538330078125,0.01708984375q-0.66650390625,0-1.068115234375-0.469970703125t-0.623779296875-1.204833984375t-0.299072265625-1.649169921875t-0.093994140625-1.802978515625z M97.065771484375,27.939453125q0-1.1279296875,0.093994140625-2.469482421875t0.333251953125-2.691650390625t0.7177734375-2.606201171875t1.23046875-2.23876953125t1.837158203125-1.563720703125t2.589111328125-0.5810546875q1.1962890625,0,2.20458984375,0.46142578125t1.76025390625,1.24755859375t1.170654296875,1.837158203125t0.418701171875,2.196044921875q0,0.3076171875-0.418701171875,0.384521484375t-0.589599609375,0.076904296875q-0.3076171875,0-0.589599609375-0.05126953125t-0.418701171875-0.41015625q-0.2392578125-0.66650390625-0.504150390625-1.4013671875t-0.6494140625-1.341552734375t-0.948486328125-0.999755859375q-0.5126953125-0.341796875-1.298828125-0.341796875l-0.13671875,0q-1.435546875,0.0341796875-2.13623046875,1.025390625t-0.965576171875,2.40966796875t-0.264892578125,3.0078125l0,2.81982421875q0,0.70068359375,0.05126953125,2.03369140625t0.247802734375,2.9052734375t0.5126953125,3.204345703125t0.8544921875,2.9736328125t1.290283203125,2.1875t1.8115234375,0.845947265625q0.93994140625,0,1.640625-0.6494140625t1.204833984375-1.666259765625t0.8544921875-2.27294921875t0.5810546875-2.520751953125t0.350341796875-2.349853515625t0.18798828125-1.785888671875q-0.18798828125-0.01708984375-0.35888671875-0.01708984375q-0.80322265625,0-1.572265625,0.25634765625q-0.97412109375,0.29052734375-1.9482421875,0.29052734375q-0.13671875,0-0.367431640625-0.01708984375t-0.435791015625-0.08544921875t-0.367431640625-0.196533203125t-0.162353515625-0.333251953125q0-0.39306640625,0.863037109375-0.66650390625t1.96533203125-0.469970703125t2.127685546875-0.281982421875t1.35009765625-0.08544921875q0.1708984375,0,0.487060546875,0.0341796875t0.63232421875,0.11962890625t0.538330078125,0.247802734375t0.22216796875,0.401611328125q0,0.205078125-0.15380859375,0.367431640625t-0.384521484375,0.247802734375t-0.469970703125,0.11962890625t-0.3759765625,0.0341796875q0.01708984375,0.39306640625,0.01708984375,0.80322265625q0,0.9228515625-0.05126953125,1.96533203125q-0.08544921875,1.50390625-0.341796875,3.0078125t-0.7861328125,2.92236328125t-1.35009765625,2.503662109375t-2.025146484375,1.751708984375t-2.862548828125,0.66650390625q-1.8115234375,0-3.05908203125-0.76904296875t-2.03369140625-2.05078125t-1.221923828125-2.9052734375t-0.623779296875-3.323974609375t-0.230712890625-3.306884765625t-0.042724609375-2.9052734375z M115.85895996094,34.62158203125q0-0.341796875,0.076904296875-0.90576171875t0.179443359375-1.119384765625t0.2392578125-1.033935546875t0.32470703125-0.615234375q0.13671875-0.13671875,0.469970703125-0.2734375t0.70068359375-0.196533203125t0.68359375,0.05126953125t0.384521484375,0.452880859375q-0.2392578125,0.3076171875-0.435791015625,1.051025390625t-0.299072265625,1.649169921875q-0.08544921875,0.76904296875-0.08544921875,1.58935546875l0,0.29052734375q0.01708984375,0.95703125,0.1708984375,1.76025390625t0.469970703125,1.324462890625t0.880126953125,0.521240234375q1.1962890625,0,2.1875-1.102294921875t1.76025390625-2.691650390625t1.35009765625-3.375244140625t0.9912109375-3.118896484375q0.1025390625-0.39306640625,0.487060546875-0.52978515625t0.828857421875-0.093994140625t0.794677734375,0.213623046875t0.418701171875,0.41015625q-0.341796875,2.87109375-0.538330078125,5.7421875t-0.196533203125,5.7763671875q0,0.56396484375,0.05126953125,1.033935546875t-0.05126953125,0.80322265625t-0.452880859375,0.52978515625t-1.119384765625,0.196533203125q-0.1708984375,0-0.435791015625-0.0341796875t-0.546875-0.111083984375t-0.478515625-0.230712890625t-0.196533203125-0.35888671875q0-1.2646484375,0.093994140625-2.59765625t0.264892578125-2.58056640625q-0.46142578125,0.66650390625-1.016845703125,1.324462890625t-1.221923828125,1.187744140625t-1.435546875,0.845947265625t-1.65771484375,0.316162109375q-1.2646484375,0-1.990966796875-0.59814453125t-1.09375-1.495361328125t-0.46142578125-1.956787109375t-0.093994140625-2.05078125z M131.951953125,36.2109375l0-0.49560546875q0-0.615234375,0.0341796875-1.162109375q0.0341796875-0.76904296875,0.0341796875-1.2646484375q0-0.2734375,0.0341796875-0.623779296875t0.1708984375-0.555419921875q0.1708984375-0.1708984375,0.401611328125-0.350341796875t0.504150390625-0.179443359375q0.87158203125,0,1.3671875,0.196533203125t0.52978515625,0.811767578125l0.068359375,0.52978515625q0.3076171875-0.73486328125,0.8203125-1.820068359375t1.187744140625-2.06787109375t1.52099609375-1.6748046875t1.785888671875-0.692138671875q0.87158203125,0,1.435546875,0.8203125t0.897216796875,2.093505859375t0.469970703125,2.8369140625t0.18798828125,3.067626953125t0.068359375,2.742919921875t0.11962890625,1.871337890625q0.068359375,0.52978515625,0.230712890625,1.119384765625t0.162353515625,1.085205078125q0,0.13671875-0.196533203125,0.264892578125t-0.418701171875,0.213623046875t-0.452880859375,0.13671875t-0.333251953125,0.05126953125q-0.66650390625,0-0.948486328125-0.999755859375t-0.350341796875-2.503662109375t-0.068359375-3.255615234375t-0.11962890625-3.255615234375t-0.487060546875-2.503662109375t-1.170654296875-1.033935546875q-0.73486328125,0-1.52099609375,0.948486328125t-1.35009765625,2.520751953125q-0.546875,1.572265625-0.751953125,3.57177734375q-0.068359375,0.63232421875-0.068359375,1.2646484375q0,1.38427734375,0.29052734375,2.7685546875q0.0341796875,0.2392578125-0.196533203125,0.35888671875t-0.572509765625,0.18798828125t-0.692138671875,0.08544921875t-0.538330078125,0.01708984375q-0.66650390625,0-1.068115234375-0.469970703125t-0.623779296875-1.204833984375t-0.299072265625-1.649169921875t-0.093994140625-1.802978515625z M147.48098144531,35.92041015625q0-1.3330078125,0.281982421875-2.418212890625t0.897216796875-1.837158203125t1.614990234375-1.170654296875t2.435302734375-0.418701171875q0.80322265625,0,1.640625,0.213623046875t1.435546875,0.794677734375q0-0.341796875,0.068359375-1.409912109375t0.1708984375-2.486572265625t0.213623046875-2.9736328125t0.196533203125-2.88818359375t0.15380859375-2.23876953125t0.1025390625-1.025390625q0.1708984375-0.49560546875,0.63232421875-0.589599609375t0.87158203125-0.093994140625q1.07666015625,0,1.324462890625,0.341796875t0.247802734375,1.3671875q0,3.74267578125-0.333251953125,7.451171875t-0.333251953125,7.451171875q0,2.40966796875,0.093994140625,4.844970703125t0.675048828125,4.793701171875l0.18798828125,0.1708984375l0.1025390625,0.3076171875l-0.25634765625,0.39306640625q-0.6494140625,0.41015625-1.50390625,0.41015625l-0.068359375,0q-0.87158203125,0-1.6064453125-0.41015625q-0.2734375-0.1708984375-0.452880859375-1.016845703125t-0.281982421875-1.86279296875t-0.15380859375-1.956787109375t-0.08544921875-1.3330078125q-0.59814453125,1.3671875-1.632080078125,2.349853515625t-2.606201171875,0.982666015625q-1.23046875,0-2.0166015625-0.52978515625t-1.221923828125-1.35009765625t-0.615234375-1.837158203125t-0.179443359375-2.025146484375z M149.54885253906,36.02294921875q0,0.39306640625,0.093994140625,1.162109375t0.299072265625,1.5380859375t0.572509765625,1.3671875t0.965576171875,0.59814453125q0.80322265625-0.39306640625,1.45263671875-1.307373046875t1.119384765625-2.0166015625t0.73486328125-2.20458984375t0.264892578125-1.905517578125q0-1.00830078125-0.73486328125-1.6748046875t-1.76025390625-0.66650390625q-0.3076171875,0-0.623779296875,0.11962890625t-0.589599609375,0.2734375q-0.63232421875,0.59814453125-0.982666015625,1.085205078125t-0.52978515625,1.00830078125t-0.230712890625,1.153564453125t-0.05126953125,1.4697265625z M162.95874023438,34.62158203125q0-0.341796875,0.076904296875-0.90576171875t0.179443359375-1.119384765625t0.2392578125-1.033935546875t0.32470703125-0.615234375q0.13671875-0.13671875,0.469970703125-0.2734375t0.70068359375-0.196533203125t0.68359375,0.05126953125t0.384521484375,0.452880859375q-0.2392578125,0.3076171875-0.435791015625,1.051025390625t-0.299072265625,1.649169921875q-0.08544921875,0.76904296875-0.08544921875,1.58935546875l0,0.29052734375q0.01708984375,0.95703125,0.1708984375,1.76025390625t0.469970703125,1.324462890625t0.880126953125,0.521240234375q1.1962890625,0,2.1875-1.102294921875t1.76025390625-2.691650390625t1.35009765625-3.375244140625t0.9912109375-3.118896484375q0.1025390625-0.39306640625,0.487060546875-0.52978515625t0.828857421875-0.093994140625t0.794677734375,0.213623046875t0.418701171875,0.41015625q-0.341796875,2.87109375-0.538330078125,5.7421875t-0.196533203125,5.7763671875q0,0.56396484375,0.05126953125,1.033935546875t-0.05126953125,0.80322265625t-0.452880859375,0.52978515625t-1.119384765625,0.196533203125q-0.1708984375,0-0.435791015625-0.0341796875t-0.546875-0.111083984375t-0.478515625-0.230712890625t-0.196533203125-0.35888671875q0-1.2646484375,0.093994140625-2.59765625t0.264892578125-2.58056640625q-0.46142578125,0.66650390625-1.016845703125,1.324462890625t-1.221923828125,1.187744140625t-1.435546875,0.845947265625t-1.65771484375,0.316162109375q-1.2646484375,0-1.990966796875-0.59814453125t-1.09375-1.495361328125t-0.46142578125-1.956787109375t-0.093994140625-2.05078125z M179.03464355469,30.87890625q0-0.341796875,0.4443359375-0.435791015625t0.68359375-0.093994140625q1.50390625,0,2.95654296875-0.25634765625t2.92236328125-0.25634765625q0.13671875,0,0.452880859375,0.01708984375t0.59814453125,0.068359375t0.504150390625,0.1708984375t0.22216796875,0.35888671875q0,0.42724609375-0.205078125,1.23046875t-0.555419921875,1.802978515625t-0.76904296875,2.119140625t-0.83740234375,2.13623046875t-0.7861328125,1.837158203125t-0.589599609375,1.28173828125q0.56396484375,0.1025390625,1.38427734375,0.1708984375t1.55517578125,0.13671875t1.23046875,0.230712890625t0.46142578125,0.401611328125q-0.068359375,0.39306640625-0.70068359375,0.615234375q-0.615234375,0.22216796875-1.5380859375,0.3076171875q-0.56396484375,0.05126953125-1.1962890625,0.05126953125q-0.3759765625,0-0.751953125-0.01708984375q-1.025390625-0.05126953125-1.922607421875-0.1708984375t-1.495361328125-0.333251953125t-0.59814453125-0.452880859375q0-0.1025390625,0.299072265625-0.83740234375t0.73486328125-1.785888671875t0.965576171875-2.2900390625t1.016845703125-2.384033203125t0.8544921875-2.03369140625t0.504150390625-1.23046875q-1.00830078125,0.068359375-2.042236328125,0.1708984375t-2.042236328125,0.1025390625q-0.13671875,0-0.435791015625-0.01708984375t-0.5810546875-0.08544921875t-0.5126953125-0.196533203125t-0.230712890625-0.333251953125z"/><path fill="#" d=""/></svg>
